<?xml version="1.0" encoding="UTF-8"?>
<svg version="1.1" xmlns="http://www.w3.org/2000/svg" width="512" height="129">
<path d="M0 0 C3.5578125 -0.12375 3.5578125 -0.12375 7.1875 -0.25 C7.92508545 -0.28641602 8.6626709 -0.32283203 9.42260742 -0.36035156 C12.96245031 -0.4196278 14.89751317 -0.06285859 17.9296875 1.796875 C20.74787589 4.79585283 20.92749072 6.93948029 21 11 C20.04357118 13.79571502 19.64701022 14.67649489 17 16 C18.07401108 18.91517292 18.77810176 20.77810176 21 23 C26.17051994 15.59675554 30.57268152 7.86230695 35 0 C41.93 0 48.86 0 56 0 C56 1.32 56 2.64 56 4 C51.38 4 46.76 4 42 4 C42 5.98 42 7.96 42 10 C45.96 10 49.92 10 54 10 C54 11.32 54 12.64 54 14 C50.04 14 46.08 14 42 14 C42 16.31 42 18.62 42 21 C46.95 21 51.9 21 57 21 C56.67 22.32 56.34 23.64 56 25 C50.06 25 44.12 25 38 25 C38 23.02 38 21.04 38 19 C34.92747574 19.07085486 31.98422814 19.23508954 29 20 C28.525625 20.845625 28.05125 21.69125 27.5625 22.5625 C26 25 26 25 23.75 25.5390625 C20.98366925 25.69185402 18.6959229 25.65166348 16 25 C13.8125 22.0625 13.8125 22.0625 12 19 C8.3634269 18.02649222 8.3634269 18.02649222 5 18 C5 20.31 5 22.62 5 25 C3.35 25 1.7 25 0 25 C0 16.75 0 8.5 0 0 Z M5 4 C5 7.3 5 10.6 5 14 C6.44375 13.87625 7.8875 13.7525 9.375 13.625 C10.18710937 13.55539063 10.99921875 13.48578125 11.8359375 13.4140625 C14.20334191 13.17107412 14.20334191 13.17107412 16 11 C16.41666667 8.5 16.41666667 8.5 16 6 C12.91111478 3.94074319 12.29064073 3.7609626 8.8125 3.875 C7.554375 3.91625 6.29625 3.9575 5 4 Z M37 5 C35.35 8.3 33.7 11.6 32 15 C33.98 15 35.96 15 38 15 C38 11.7 38 8.4 38 5 C37.67 5 37.34 5 37 5 Z " fill="red" transform="translate(273,37)"/>
<path d="M0 0 C3.5578125 -0.12375 3.5578125 -0.12375 7.1875 -0.25 C7.92508545 -0.28641602 8.6626709 -0.32283203 9.42260742 -0.36035156 C12.96408565 -0.41965518 14.89492143 -0.06467453 17.92578125 1.80078125 C20.77896183 4.82590492 21 6.88633531 21 11 C19.6875 13.9375 19.6875 13.9375 18 16 C17.34 16 16.68 16 16 16 C18.475 19.465 18.475 19.465 21 23 C22.27339482 20.48043257 23.54376642 17.95941351 24.8125 15.4375 C25.34713867 14.38079102 25.34713867 14.38079102 25.89257812 13.30273438 C28.09092409 8.92621075 30.11663926 4.52125402 32 0 C33.65 0 35.3 0 37 0 C38.8363725 3.9777711 40.66858862 7.9574426 42.5 11.9375 C43.02464844 13.07380859 43.54929687 14.21011719 44.08984375 15.38085938 C44.58613281 16.46044922 45.08242188 17.54003906 45.59375 18.65234375 C46.05458984 19.65257568 46.51542969 20.65280762 46.99023438 21.68334961 C48 24 48 24 48 25 C46.35 25 44.7 25 43 25 C42.34 23.02 41.68 21.04 41 19 C36.71 19 32.42 19 28 19 C27.34 20.98 26.68 22.96 26 25 C22.60155767 25.35022116 19.38368685 25.54160439 16 25 C13.8125 22.0625 13.8125 22.0625 12 19 C8.3634269 18.02649222 8.3634269 18.02649222 5 18 C5 20.31 5 22.62 5 25 C3.35 25 1.7 25 0 25 C0 16.75 0 8.5 0 0 Z M5 4 C5 7.3 5 10.6 5 14 C10.08303686 14.11320856 10.08303686 14.11320856 15 13 C15.33 10.69 15.66 8.38 16 6 C12.91111478 3.94074319 12.29064073 3.7609626 8.8125 3.875 C7.554375 3.91625 6.29625 3.9575 5 4 Z M34 6 C32.02 10.455 32.02 10.455 30 15 C32.97 15 35.94 15 39 15 C37.68 12.03 36.36 9.06 35 6 C34.67 6 34.34 6 34 6 Z " fill="red" transform="translate(270,71)"/>
<path d="M0 0 C0.66 0 1.32 0 2 0 C1.69651418 4.04647763 0.7811133 6.47661737 -1.5625 9.6875 C-4.81307566 14.58691838 -4.83254661 19.2885512 -4 25 C-2.39701349 28.74030185 -1.40262302 29.73158465 2 32 C4.23929324 32.47082576 6.49211144 32.87844872 8.75 33.25 C19.53049992 35.20230134 29.28072118 39.6164318 39.16796875 44.23828125 C41.08806683 45.03661627 42.97325645 45.5461173 45 46 C45 46.66 45 47.32 45 48 C39.36169117 47.45316533 34.85191848 45.89725065 29.6875 43.625 C23.55070585 41.00390377 17.47527807 38.67052628 11 37 C10.9071875 38.485 10.9071875 38.485 10.8125 40 C10.15762638 44.73820324 7.68803767 48.1479834 5 52 C4.34 52.99 3.68 53.98 3 55 C2.34 55 1.68 55 1 55 C1 55.66 1 56.32 1 57 C0 58 -1 59 -2 60 C-3.17574711 62.09989652 -3.17574711 62.09989652 -4 64 C-4.66 63.67 -5.32 63.34 -6 63 C-3.88465019 57.35906717 -1.13799012 52.43767743 3 48 C3.66 48 4.32 48 5 48 C6.49140021 44.37802806 7.7874262 40.72433382 9 37 C7.29204966 36.37395415 5.58362002 35.74921585 3.875 35.125 C2.44800781 34.60292969 2.44800781 34.60292969 0.9921875 34.0703125 C-1.99175167 33.00295045 -4.99006699 31.99140227 -8 31 C-12.01662815 39.58537013 -15.05662798 48.0211072 -17.3503418 57.22021484 C-17.84633346 59.16138342 -18.41673228 61.08324703 -19 63 C-19.99 63.495 -19.99 63.495 -21 64 C-20.76971348 61.16383976 -20.51640867 58.33281218 -20.25 55.5 C-20.188125 54.70851562 -20.12625 53.91703125 -20.0625 53.1015625 C-19.35732755 45.93230922 -16.89434413 40.78580019 -12.875 34.875 C-10.23616492 30.42580132 -10.16422635 25.42096882 -9.5546875 20.37890625 C-8.43232199 13.54196139 -4.81762235 8.66061245 -1 3 C-0.67 2.01 -0.34 1.02 0 0 Z " fill="red" transform="translate(29,65)"/>
<path d="M0 0 C21.46319901 -1.2057977 21.46319901 -1.2057977 25.79296875 2.19140625 C27.22106238 4.77225411 28.13999891 7.1893819 29 10 C29.66 10.33 30.32 10.66 31 11 C31.2475 10.29875 31.495 9.5975 31.75 8.875 C33.19944956 5.541266 34.7004562 2.82515381 37 0 C39.63671875 -0.16796875 39.63671875 -0.16796875 42 0 C41.06385433 1.72990025 40.12602042 3.45888696 39.1875 5.1875 C38.66542969 6.15042969 38.14335937 7.11335938 37.60546875 8.10546875 C36.57758229 9.95866551 35.49409266 11.78272457 34.34375 13.5625 C32.92480057 16.13640827 32.52948988 17.90483555 32.3125 20.8125 C32.24675781 21.60269531 32.18101562 22.39289063 32.11328125 23.20703125 C32.07589844 23.79871094 32.03851563 24.39039062 32 25 C30.68 25 29.36 25 28 25 C28 23.783125 28 22.56625 28 21.3125 C27.29430553 14.30036134 22.85727533 8.6848682 19 3 C18.67 3.33 18.34 3.66 18 4 C15.81360547 4.07258946 13.62499611 4.08373783 11.4375 4.0625 C9.64119141 4.04896484 9.64119141 4.04896484 7.80859375 4.03515625 C6.88175781 4.02355469 5.95492187 4.01195313 5 4 C5 6.31 5 8.62 5 11 C8.96 11 12.92 11 17 11 C17 12.32 17 13.64 17 15 C13.04 15 9.08 15 5 15 C5 18.3 5 21.6 5 25 C3.35 25 1.7 25 0 25 C0 16.75 0 8.5 0 0 Z " fill="red" transform="translate(124,71)"/>
<path d="M0 0 C1.155 0.185625 2.31 0.37125 3.5 0.5625 C7.86389648 1.1235724 11.66733065 0.69632186 16 0 C15.01437243 3.31529273 14.34552581 4.74949379 11.5 6.8125 C9 8 9 8 7 8 C7.23923369 12.0669728 7.59060669 14.45414226 10.0625 17.75 C13.10253306 20.07853596 15.62363309 21.06204436 19.19921875 22.25390625 C21.69760573 23.28902971 22.74618029 24.63986878 24 27 C25.07506568 30.22519703 25.20946454 32.86046431 25.375 36.25 C25.7232709 41.66448812 25.7232709 41.66448812 27.5625 46.6875 C29.51188225 51.17955475 29.26210331 55.17535763 29 60 C25.1484375 59.1953125 25.1484375 59.1953125 23.8125 57.4375 C22.00762986 52.02288957 21.96901076 46.70781205 22.0625 41.0625 C22.23002311 33.2969748 22.23002311 33.2969748 20 26 C15.74895409 23.73674614 11.23873786 23.36498816 6.5234375 22.7578125 C4 22 4 22 2.2421875 20.3671875 C0.61228997 17.26115635 0.20618482 14.47289085 -0.25 11 C-0.42015625 9.783125 -0.5903125 8.56625 -0.765625 7.3125 C-0.96661771 4.47180302 -0.92687611 2.64821747 0 0 Z " fill="red" transform="translate(71,0)"/>
<path d="M0 0 C0.66 0 1.32 0 2 0 C1.86722656 0.65226562 1.73445313 1.30453125 1.59765625 1.9765625 C1.23218234 3.7852582 0.87988892 5.59665448 0.5390625 7.41015625 C0 10 0 10 -1.0625 13.0625 C-0.97046686 17.38805743 1.40838675 19.45720459 4.140625 22.67578125 C6.72106349 25.90132936 8.29536717 29.24980777 10 33 C15.71545851 32.60141261 18.53998222 31.27654718 22.8125 27.5 C27.9406308 23.0296846 27.9406308 23.0296846 30 22 C27.0678461 28.53985307 21.67656555 33.44301745 15 36 C11.41558801 37.0454535 9.57602134 37.18000667 6 36.0625 C0.26901968 32.12245103 -3.30968495 26.76126018 -5 20 C-9.84682395 23.93949777 -9.84682395 23.93949777 -13.9375 28.625 C-16.74306982 31.85565616 -20.03742258 33.46471567 -24 35 C-24.66 35 -25.32 35 -26 35 C-26.99 37.475 -26.99 37.475 -28 40 C-28.66 40 -29.32 40 -30 40 C-31 37 -31 37 -29.9453125 34.015625 C-27.60746081 30.39148543 -25.77521125 29.50186794 -21.875 27.75 C-9.60686359 21.48629075 -4.57566101 12.45297546 0 0 Z " fill="red" transform="translate(85,36)"/>
<path d="M0 0 C3.3891571 0.60520662 5.30430129 1.91300745 8 4 C12.24132092 5.41377364 16.42471086 5.00908073 20.84375 4.87304688 C28.09664215 4.7571642 33.95005472 6.10646945 39.359375 11.1015625 C44.38245375 16.9139822 46.57981414 23.43665453 47 31 C46.01 31 45.02 31 44 31 C43.46375 30.01 42.9275 29.02 42.375 28 C39.93755652 23.71255446 37.01115964 19.90082045 34 16 C33.01 21.28 32.02 26.56 31 32 C29.515 32.495 29.515 32.495 28 33 C28.144375 32.26136719 28.28875 31.52273437 28.4375 30.76171875 C29.70589279 23.82959983 30.56926246 17.05620681 30 10 C28.47440493 8.47440493 27.04713529 8.82091286 24.921875 8.75390625 C24.09042969 8.72103516 23.25898437 8.68816406 22.40234375 8.65429688 C20.6498527 8.59364365 18.89724396 8.53629086 17.14453125 8.48242188 C12.69760728 8.30084486 9.04625548 8.0649279 5 6 C3.15432836 7.84567164 3.35449902 10.82269829 3 13.3125 C1.97177018 20.48600963 1.97177018 20.48600963 1 24 C0.34 24 -0.32 24 -1 24 C-1.02901394 20.5625177 -1.04680335 17.12506688 -1.0625 13.6875 C-1.07087891 12.71103516 -1.07925781 11.73457031 -1.08789062 10.72851562 C-1.09111328 9.79072266 -1.09433594 8.85292969 -1.09765625 7.88671875 C-1.10551147 6.59060669 -1.10551147 6.59060669 -1.11352539 5.26831055 C-1 3 -1 3 0 0 Z " fill="red" transform="translate(11,19)"/>
<path d="M0 0 C5.625 1.125 5.625 1.125 7.89453125 3.94140625 C8.37470703 4.52470703 8.85488281 5.10800781 9.34960938 5.70898438 C9.83236328 6.32064453 10.31511719 6.93230469 10.8125 7.5625 C11.56563477 8.48579102 11.56563477 8.48579102 12.33398438 9.42773438 C13.56716988 10.94279085 14.78511798 12.47022737 16 14 C16.33 9.38 16.66 4.76 17 0 C18.65 0 20.3 0 22 0 C22 8.25 22 16.5 22 25 C16.375 23.875 16.375 23.875 14.10546875 20.83984375 C13.62529297 20.21142578 13.14511719 19.58300781 12.65039062 18.93554688 C11.92625977 17.94651367 11.92625977 17.94651367 11.1875 16.9375 C10.43436523 15.94266602 10.43436523 15.94266602 9.66601562 14.92773438 C8.43201314 13.29415013 7.21437259 11.648229 6 10 C5.67 14.95 5.34 19.9 5 25 C3.35 25 1.7 25 0 25 C0 16.75 0 8.5 0 0 Z " fill="red" transform="translate(461,71)"/>
<path d="M0 0 C5 0 5 0 6.84375 1.7578125 C7.3903125 2.53898437 7.936875 3.32015625 8.5 4.125 C9.38365234 5.34896484 9.38365234 5.34896484 10.28515625 6.59765625 C11.13400391 7.78681641 11.13400391 7.78681641 12 9 C12.9659092 10.1983084 13.94305786 11.3877624 14.9375 12.5625 C15.9584375 13.7690625 15.9584375 13.7690625 17 15 C17 10.05 17 5.1 17 0 C18.65 0 20.3 0 22 0 C22 8.25 22 16.5 22 25 C16.375 23.875 16.375 23.875 14.10546875 20.83984375 C13.62529297 20.21142578 13.14511719 19.58300781 12.65039062 18.93554688 C11.92625977 17.94651367 11.92625977 17.94651367 11.1875 16.9375 C10.43436523 15.94266602 10.43436523 15.94266602 9.66601562 14.92773438 C8.43201314 13.29415013 7.21437259 11.648229 6 10 C5.67 14.95 5.34 19.9 5 25 C3.35 25 1.7 25 0 25 C0 16.75 0 8.5 0 0 Z " fill="red" transform="translate(173,37)"/>
<path d="M0 0 C1.06412109 0.00193359 2.12824219 0.00386719 3.22460938 0.00585938 C4.33771484 0.01810547 5.45082031 0.03035156 6.59765625 0.04296875 C7.67595703 0.04361328 8.75425781 0.04425781 9.86523438 0.04492188 C16.29015663 0.07956795 22.61426861 0.43769293 29.01049805 1.02758789 C33.27374787 1.35401935 37.4875647 1.10211861 41.75 0.875 C45.49812103 1.33282418 47.03666214 2.56054111 49.66015625 5.23046875 C50.91789087 7.9402222 51.17592937 10.22826211 51.66015625 13.23046875 C51.33015625 13.89046875 51.00015625 14.55046875 50.66015625 15.23046875 C50.00015625 15.23046875 49.34015625 15.23046875 48.66015625 15.23046875 C48.45519531 14.59238281 48.25023437 13.95429688 48.0390625 13.296875 C47.76964844 12.47058594 47.50023437 11.64429688 47.22265625 10.79296875 C46.95582031 9.96925781 46.68898437 9.14554688 46.4140625 8.296875 C45.83860131 6.26827287 45.83860131 6.26827287 44.66015625 5.23046875 C43.14493208 5.1556521 41.62630355 5.14724214 40.109375 5.16796875 C39.18318359 5.17570313 38.25699219 5.1834375 37.30273438 5.19140625 C35.34439899 5.21729304 33.38606562 5.24333284 31.42773438 5.26953125 C30.49767578 5.27726563 29.56761719 5.285 28.609375 5.29296875 C27.75690186 5.30457031 26.90442871 5.31617188 26.02612305 5.328125 C23.66015625 5.23046875 23.66015625 5.23046875 21.73071289 4.74633789 C19.0011305 4.06627568 16.39240505 4.0104969 13.58203125 3.9140625 C12.421875 3.87216797 11.26171875 3.83027344 10.06640625 3.78710938 C8.85984375 3.74779297 7.65328125 3.70847656 6.41015625 3.66796875 C5.188125 3.62478516 3.96609375 3.58160156 2.70703125 3.53710938 C-0.30848295 3.4310952 -3.32407823 3.32902939 -6.33984375 3.23046875 C-7.15419109 6.99062909 -7.33962982 10.01644383 -6.96484375 13.85546875 C-6.4426697 19.74857592 -6.07642525 25.63528138 -5.77734375 31.54296875 C-5.73367676 32.39777832 -5.69000977 33.25258789 -5.64501953 34.13330078 C-5.54197567 36.16562368 -5.44071418 38.19803682 -5.33984375 40.23046875 C-5.99984375 40.23046875 -6.65984375 40.23046875 -7.33984375 40.23046875 C-10.80778194 33.00108326 -11.94729936 26.96289983 -11.77734375 18.98046875 C-11.78443359 18.0265625 -11.79152344 17.07265625 -11.79882812 16.08984375 C-11.75073356 10.76244602 -11.41721012 6.77773011 -8.33984375 2.23046875 C-4.99097545 -0.00211012 -3.90766307 -0.01680786 0 0 Z " fill="red" transform="translate(11.33984375,7.76953125)"/>
<path d="M0 0 C5.69806475 1.13961295 6.2844686 1.97243645 9.6875 6.375 C10.83798828 7.84066406 10.83798828 7.84066406 12.01171875 9.3359375 C13.39284078 11.18647822 14.71913502 13.07870254 16 15 C16.33 10.05 16.66 5.1 17 0 C18.65 0 20.3 0 22 0 C22 8.25 22 16.5 22 25 C16.37356133 23.87471227 16.37356133 23.87471227 14.140625 21.12890625 C13.66496094 20.55462891 13.18929688 19.98035156 12.69921875 19.38867188 C12.22097656 18.78603516 11.74273437 18.18339844 11.25 17.5625 C10.75628906 16.96373047 10.26257813 16.36496094 9.75390625 15.74804688 C6.20076885 11.4015377 6.20076885 11.4015377 5 9 C4.67 14.28 4.34 19.56 4 25 C2.68 25 1.36 25 0 25 C0 16.75 0 8.5 0 0 Z " fill="red" transform="translate(372,37)"/>
<path d="M0 0 C3.5578125 -0.12375 3.5578125 -0.12375 7.1875 -0.25 C7.92508545 -0.28641602 8.6626709 -0.32283203 9.42260742 -0.36035156 C13.02641563 -0.42069892 14.87966133 -0.07776224 17.92578125 1.890625 C20.42844944 4.43571129 20.94076476 5.31879475 21.25 8.875 C20.97556644 12.30541954 20.40590072 13.59409928 18 16 C17.34 16 16.68 16 16 16 C16.3609375 16.48210937 16.721875 16.96421875 17.09375 17.4609375 C17.5578125 18.09257813 18.021875 18.72421875 18.5 19.375 C18.9640625 20.00148438 19.428125 20.62796875 19.90625 21.2734375 C21 23 21 23 21 25 C18.75 25.375 18.75 25.375 16 25 C15.38125 24.030625 14.7625 23.06125 14.125 22.0625 C12.23913311 18.61388207 12.23913311 18.61388207 8.25 18.125 C7.1775 18.08375 6.105 18.0425 5 18 C5 20.31 5 22.62 5 25 C3.35 25 1.7 25 0 25 C0 16.75 0 8.5 0 0 Z M5 4 C5 7.3 5 10.6 5 14 C10.7974423 14.24428343 10.7974423 14.24428343 16 12 C16.2502157 9.08365871 16.2502157 9.08365871 16 6 C12.91111478 3.94074319 12.29064073 3.7609626 8.8125 3.875 C7.554375 3.91625 6.29625 3.9575 5 4 Z " fill="red" transform="translate(436,71)"/>
<path d="M0 0 C3.79727475 1.79507533 5.53142782 3.33492982 7.9375 6.75 C9.25078392 10.76710377 9.31351059 14.01990466 8 18 C5.92262679 21.45979784 3.91785087 23.69404971 0 25 C-4.30451937 25.5945053 -8.30445244 25.96192644 -12.17578125 23.765625 C-16.2335021 20.37158934 -17.79982155 18.12189155 -18.3125 12.6875 C-17.88343902 7.62458039 -15.91697103 4.7171166 -12.1640625 1.35546875 C-8.34186955 -1.03857629 -4.3524822 -0.61196037 0 0 Z M-11.0625 6 C-13.49058836 9.75962068 -13.78527701 11.60244876 -13 16 C-10.40783917 19.69186542 -8.95850936 20.82883761 -4.5 21.625 C-0.04149064 20.82883761 1.40783917 19.69186542 4 16 C4.50984938 12.36732318 4.40735398 10.03196341 3.0625 6.625 C-1.38708116 3.11926939 -6.40840025 2.96058792 -11.0625 6 Z " fill="red" transform="translate(215,71)"/>
<path d="M0 0 C3.45032232 1.66379179 5.41655921 4.06142133 7.4375 7.3125 C8.50152842 12.39619132 7.96481008 16.4696116 5.1875 20.875 C1.87818607 24.0897621 -0.82374019 25.28851165 -5.4375 25.3125 C-9.44106507 25.20092524 -11.87806191 24.67594693 -15 22 C-17.76012209 18.71769265 -18.91233829 16.71381679 -19.4375 12.4375 C-18.82357032 7.6137668 -17.12308366 5.29856549 -14 1.6875 C-9.42284891 -0.88714749 -5.12676282 -0.87200071 0 0 Z M-14 9 C-15.1576585 10.87957244 -15.1576585 10.87957244 -15 13 C-13.44025604 16.89935989 -12.53271727 18.64485515 -9 21 C-5.09168581 21.33262248 -2.28673668 21.23028561 1 19 C3.50031654 15.24952518 3.53603554 13.44143734 3 9 C0.40783917 5.30813458 -1.04149064 4.17116239 -5.5 3.375 C-9.88415647 4.15788508 -11.30548156 5.51297613 -14 9 Z " fill="red" transform="translate(218,37)"/>
<path d="M0 0 C6.27 0 12.54 0 19 0 C19 1.32 19 2.64 19 4 C14.38 4 9.76 4 5 4 C5 5.98 5 7.96 5 10 C8.96 10 12.92 10 17 10 C17 11.65 17 13.3 17 15 C13.37 15 9.74 15 6 15 C5.67 16.98 5.34 18.96 5 21 C9.62 21 14.24 21 19 21 C19 22.32 19 23.64 19 25 C12.73 25 6.46 25 0 25 C0 16.75 0 8.5 0 0 Z " fill="red" transform="translate(247,71)"/>
<path d="M0 0 C5.51483143 1.10296629 5.95754678 1.57059697 9.125 5.8125 C9.78757812 6.68519531 10.45015625 7.55789062 11.1328125 8.45703125 C11.74898438 9.29621094 12.36515625 10.13539062 13 11 C13.99 12.32 14.98 13.64 16 15 C16.33 10.05 16.66 5.1 17 0 C18.32 0 19.64 0 21 0 C21 8.25 21 16.5 21 25 C17 25 17 25 15.55200195 23.73071289 C15.11847412 23.1505542 14.68494629 22.57039551 14.23828125 21.97265625 C13.75939453 21.34552734 13.28050781 20.71839844 12.78710938 20.07226562 C12.30048828 19.40904297 11.81386719 18.74582031 11.3125 18.0625 C10.32953889 16.76163426 9.34647145 15.46084885 8.36328125 14.16015625 C7.19345703 12.59587891 7.19345703 12.59587891 6 11 C5.67 10.67 5.34 10.34 5 10 C4.67 14.95 4.34 19.9 4 25 C2.68 25 1.36 25 0 25 C0 16.75 0 8.5 0 0 Z " fill="red" transform="translate(334,37)"/>
<path d="M0 0 C5.94 0 11.88 0 18 0 C18 1.32 18 2.64 18 4 C11.565 4.495 11.565 4.495 5 5 C5 6.65 5 8.3 5 10 C8.96 10 12.92 10 17 10 C16.67 11.65 16.34 13.3 16 15 C12.37 15 8.74 15 5 15 C5 16.98 5 18.96 5 21 C9.62 21 14.24 21 19 21 C19 22.32 19 23.64 19 25 C12.73 25 6.46 25 0 25 C0 16.75 0 8.5 0 0 Z " fill="red" transform="translate(489,71)"/>
<path d="M0 0 C5.94 0 11.88 0 18 0 C18 1.32 18 2.64 18 4 C13.71 4 9.42 4 5 4 C5 5.98 5 7.96 5 10 C8.96 10 12.92 10 17 10 C16.67 11.65 16.34 13.3 16 15 C12.7 15 9.4 15 6 15 C5.67 16.98 5.34 18.96 5 21 C9.62 21 14.24 21 19 21 C19 22.32 19 23.64 19 25 C12.73 25 6.46 25 0 25 C0 16.75 0 8.5 0 0 Z " fill="red" transform="translate(344,71)"/>
<path d="M0 0 C6.27 0 12.54 0 19 0 C19 1.32 19 2.64 19 4 C14.38 4 9.76 4 5 4 C5 5.98 5 7.96 5 10 C8.96 10 12.92 10 17 10 C17 11.32 17 12.64 17 14 C13.04 14 9.08 14 5 14 C5 16.31 5 18.62 5 21 C9.62 21 14.24 21 19 21 C19 22.32 19 23.64 19 25 C12.73 25 6.46 25 0 25 C0 16.75 0 8.5 0 0 Z " fill="red" transform="translate(150,37)"/>
<path d="M0 0 C2.206875 -0.061875 4.41375 -0.12375 6.6875 -0.1875 C8.54955078 -0.23970703 8.54955078 -0.23970703 10.44921875 -0.29296875 C14.2423504 0.01999591 16.04556183 0.64618937 19 3 C20.53080034 6.59405297 21.22529998 8.89853344 20.4375 12.75 C18.5490072 15.70590178 17.27206574 16.67725002 14 18 C10.98130448 18.23298657 8.02045245 18.17767367 5 18 C5 20.31 5 22.62 5 25 C3.35 25 1.7 25 0 25 C0 16.75 0 8.5 0 0 Z M5 4 C5 7.3 5 10.6 5 14 C9.96551325 14.35606813 9.96551325 14.35606813 14.4375 12.5 C14.953125 12.005 15.46875 11.51 16 11 C15.72965366 8.56282742 15.72965366 8.56282742 15 6 C11.3558226 3.5705484 9.28758728 3.83820425 5 4 Z " fill="red" transform="translate(320,71)"/>
<path d="M0 0 C5.94 0 11.88 0 18 0 C18 1.32 18 2.64 18 4 C13.38 4 8.76 4 4 4 C4 5.98 4 7.96 4 10 C7.96 10 11.92 10 16 10 C16 11.65 16 13.3 16 15 C12.37 15 8.74 15 5 15 C4.67 16.98 4.34 18.96 4 21 C8.62 21 13.24 21 18 21 C18 22.32 18 23.64 18 25 C12.06 25 6.12 25 0 25 C0 16.75 0 8.5 0 0 Z " fill="red" transform="translate(414,71)"/>
<path d="M0 0 C2.3359375 1.40234375 2.3359375 1.40234375 4 3 C4 3.66 4 4.32 4 5 C0.25 6.125 0.25 6.125 -2 5 C-7.60703213 4.78622279 -7.60703213 4.78622279 -13 6 C-14.16396662 11.60553935 -14.16396662 11.60553935 -12.6875 16.9375 C-11.16126242 19.08980875 -11.16126242 19.08980875 -9 20 C-7.62657169 20.0689472 -6.24997898 20.08467708 -4.875 20.0625 C-2.956875 20.0315625 -2.956875 20.0315625 -1 20 C-1 17.36 -1 14.72 -1 12 C0.65 12 2.3 12 4 12 C4.2852983 15.37919987 4.40733393 18.62727503 4 22 C1.70594031 24.59993431 0.02255209 24.86899083 -3.34765625 25.30078125 C-7.56933086 25.52364492 -10.5080777 25.20571296 -14.4375 23.5625 C-17.90947939 20.09052061 -19.42281518 16.8820216 -20 12 C-19.42354529 7.44440652 -17.7212305 4.7212305 -14.5 1.5 C-9.70598366 -0.55457843 -5.14833701 -0.8632408 0 0 Z " fill="red" transform="translate(417,37)"/>
<path d="M0 0 C1.40765625 -0.01160156 1.40765625 -0.01160156 2.84375 -0.0234375 C5.86316774 0.42947516 7.24702018 1.36644724 9.5 3.375 C9.17 4.365 8.84 5.355 8.5 6.375 C7.819375 6.21 7.13875 6.045 6.4375 5.875 C-0.01519009 4.72125006 -0.01519009 4.72125006 -5.9375 6.9375 C-8.08016848 10.28006283 -7.99573337 12.47995209 -7.5 16.375 C-5.95737187 18.47858381 -4.81891683 19.21554159 -2.5 20.375 C-1.12657169 20.4439472 0.25002102 20.45967708 1.625 20.4375 C3.543125 20.4065625 3.543125 20.4065625 5.5 20.375 C5.5 17.735 5.5 15.095 5.5 12.375 C6.82 12.375 8.14 12.375 9.5 12.375 C9.78529317 15.75413907 9.9127 19.0028066 9.5 22.375 C6.7540617 25.38667426 3.97122889 25.58140961 0.0625 25.8125 C-4.45278304 25.6472151 -7.06215039 24.4035818 -10.5 21.375 C-12.87302167 18.44827328 -13.45966626 16.69190796 -13.9375 12.9375 C-13.33066397 7.99612094 -11.34246797 5.0652641 -7.703125 1.7265625 C-4.96284306 0.04546755 -3.19637951 -0.02634379 0 0 Z " fill="red" transform="translate(135.5,36.625)"/>
<path d="M0 0 C1.83984375 1.52734375 1.83984375 1.52734375 3 3 C2.67 3.99 2.34 4.98 2 6 C1.484375 5.835 0.96875 5.67 0.4375 5.5 C-2.73363876 4.84951 -5.77218334 4.9379266 -9 5 C-9.33 5.99 -9.66 6.98 -10 8 C-9.15695313 8.32613281 -8.31390625 8.65226562 -7.4453125 8.98828125 C-6.34960938 9.42527344 -5.25390625 9.86226562 -4.125 10.3125 C-3.03445312 10.74175781 -1.94390625 11.17101562 -0.8203125 11.61328125 C2 13 2 13 4 16 C3.85939657 19.3744824 3.74551993 21.2895045 1.25390625 23.6640625 C-2.62184444 25.96130121 -6.63035425 25.55061772 -11 25 C-14.125 23.5 -14.125 23.5 -16 22 C-15.505 20.515 -15.505 20.515 -15 19 C-14.43796875 19.16371094 -13.8759375 19.32742187 -13.296875 19.49609375 C-10.86940944 20.02864997 -8.73110319 20.09898681 -6.25 20.0625 C-5.05117187 20.04896484 -5.05117187 20.04896484 -3.828125 20.03515625 C-3.22484375 20.02355469 -2.6215625 20.01195313 -2 20 C-2.16016792 18.02723636 -2.16016792 18.02723636 -3 16 C-4.98436045 14.9691244 -4.98436045 14.9691244 -7.375 14.4375 C-10.75765939 13.55051602 -12.81756856 12.80893384 -15 10 C-15.51410062 6.54818157 -15.38115483 4.68970874 -13.6875 1.625 C-9.46023198 -0.93102252 -4.81582729 -0.8161173 0 0 Z " fill="red" transform="translate(181,71)"/>
<path d="M0 0 C14.19642857 -0.66964286 14.19642857 -0.66964286 17.875 2.0625 C20 5 20 5 20.6875 8.5 C19.8403214 12.81290923 18.3720891 14.27021358 15 17 C12.59454362 18.20272819 11.05003047 18.10071472 8.375 18.0625 C7.14910156 18.04896484 7.14910156 18.04896484 5.8984375 18.03515625 C5.27195313 18.02355469 4.64546875 18.01195313 4 18 C4 20.31 4 22.62 4 25 C2.68 25 1.36 25 0 25 C0 16.75 0 8.5 0 0 Z M4 4 C4 7.3 4 10.6 4 14 C7.3 13.67 10.6 13.34 14 13 C15.29042763 10.73398135 15.29042763 10.73398135 16 8 C15.35831839 5.50259696 15.35831839 5.50259696 13 4 C9.92047561 3.65722608 7.11605176 3.81935932 4 4 Z " fill="red" transform="translate(230,37)"/>
<path d="M0 0 C0.96164062 0.01546875 1.92328125 0.0309375 2.9140625 0.046875 C5.375 0.25 5.375 0.25 7.375 1.25 C7.045 2.9 6.715 4.55 6.375 6.25 C5.385 5.92 4.395 5.59 3.375 5.25 C1.98060336 5.18334624 0.58330125 5.16461801 -0.8125 5.1875 C-2.070625 5.208125 -3.32875 5.22875 -4.625 5.25 C-4.51069806 7.22781352 -4.51069806 7.22781352 -3.625 9.25 C-1.37286624 10.28426427 -1.37286624 10.28426427 1.3125 10.8125 C6.16626489 11.93689733 6.16626489 11.93689733 8.375 15.25 C8.8125 18.1875 8.8125 18.1875 8.375 21.25 C6.2269223 23.8831275 4.61489757 25.07062965 1.21484375 25.5625 C-3.14592808 25.67898138 -6.68508731 25.28350332 -10.625 23.25 C-10.295 21.6 -9.965 19.95 -9.625 18.25 C-8.944375 18.58 -8.26375 18.91 -7.5625 19.25 C-4.11659762 20.42307315 -1.24102578 20.39180493 2.375 20.25 C2.375 18.93 2.375 17.61 2.375 16.25 C1.68792969 16.07984375 1.00085938 15.9096875 0.29296875 15.734375 C-0.60808594 15.49203125 -1.50914062 15.2496875 -2.4375 15 C-3.77748047 14.65195312 -3.77748047 14.65195312 -5.14453125 14.296875 C-8.05086892 13.0702632 -9.08886707 11.97919617 -10.625 9.25 C-10.55550476 5.84473331 -10.39213371 3.99957916 -7.91796875 1.58203125 C-5.07784677 -0.06785222 -3.26315498 -0.08795566 0 0 Z " fill="red" transform="translate(434.625,36.75)"/>
<path d="M0 0 C1.65 0 3.3 0 5 0 C5.02505615 0.57032959 5.0501123 1.14065918 5.07592773 1.72827148 C5.19156549 4.29826157 5.31443624 6.86785527 5.4375 9.4375 C5.47681641 10.33533203 5.51613281 11.23316406 5.55664062 12.15820312 C5.59853516 13.01220703 5.64042969 13.86621094 5.68359375 14.74609375 C5.72025146 15.53685303 5.75690918 16.3276123 5.79467773 17.14233398 C5.80563257 19.01401441 5.80563257 19.01401441 7 20 C10.45812169 20.33338596 10.45812169 20.33338596 14 20 C15.9756562 17.03651571 16.26376859 16.31979627 16.4140625 12.98828125 C16.45273437 12.23095703 16.49140625 11.47363281 16.53125 10.69335938 C16.57765625 9.51483398 16.57765625 9.51483398 16.625 8.3125 C16.66367187 7.51521484 16.70234375 6.71792969 16.7421875 5.89648438 C16.83632494 3.93136525 16.91924632 1.9657146 17 0 C18.32 0 19.64 0 21 0 C21.10822792 3.06345144 21.18741479 6.1230601 21.25 9.1875 C21.30027344 10.48397461 21.30027344 10.48397461 21.3515625 11.80664062 C21.41676616 16.0611794 21.39830711 18.35727716 19.109375 22.05078125 C15.57225659 25.31934067 12.92312236 25.33050018 8.26171875 25.29296875 C4.9457722 24.86344199 3.25012373 23.39075646 1 21 C-0.17426264 18.65147472 -0.11508173 17.26225935 -0.09765625 14.6484375 C-0.09443359 13.79765625 -0.09121094 12.946875 -0.08789062 12.0703125 C-0.07951172 11.18085937 -0.07113281 10.29140625 -0.0625 9.375 C-0.05798828 8.4778125 -0.05347656 7.580625 -0.04882812 6.65625 C-0.03702591 4.43743352 -0.02056155 2.21874982 0 0 Z " fill="red" transform="translate(367,71)"/>
<path d="M0 0 C5.39104478 -0.50149254 5.39104478 -0.50149254 8.125 1.75 C11.07297958 4.05711445 13.02403125 4.74957896 16.5625 5.8125 C26.87413382 9.06813869 36.81368683 14.78246701 44 23 C45.81294574 26.84297559 46.78016329 29.75244429 46 34 C41.89861028 39.16518768 36.01023578 41.68312906 30 44 C31 41 31 41 32.99609375 39.71875 C33.80175781 39.3165625 34.60742188 38.914375 35.4375 38.5 C38.75948619 36.83634079 39.87414755 36.18877868 42 33 C41.91410346 27.76031136 41.38197268 24.40154327 37.6484375 20.44140625 C29.1118421 12.9769425 19.9367661 9.75914157 9.05273438 7.5390625 C5.031771 6.66384835 2.10591375 5.88464813 -1 3 C-0.67 2.01 -0.34 1.02 0 0 Z " fill="red" transform="translate(49,80)"/>
<path d="M0 0 C6.93 0 13.86 0 21 0 C21 1.32 21 2.64 21 4 C18.36 4 15.72 4 13 4 C13 10.93 13 17.86 13 25 C11.35 25 9.7 25 8 25 C8 18.07 8 11.14 8 4 C5.36 4 2.72 4 0 4 C0 2.68 0 1.36 0 0 Z " fill="red" transform="translate(390,71)"/>
<path d="M0 0 C6.93 0 13.86 0 21 0 C21 1.32 21 2.64 21 4 C18.36 4 15.72 4 13 4 C13 10.93 13 17.86 13 25 C11.35 25 9.7 25 8 25 C8 18.07 8 11.14 8 4 C5.36 4 2.72 4 0 4 C0 2.68 0 1.36 0 0 Z " fill="red" transform="translate(224,71)"/>
<path d="M0 0 C6.93 0 13.86 0 21 0 C21 1.32 21 2.64 21 4 C18.03 4 15.06 4 12 4 C12 10.93 12 17.86 12 25 C10.68 25 9.36 25 8 25 C8 18.07 8 11.14 8 4 C5.36 4 2.72 4 0 4 C0 2.68 0 1.36 0 0 Z " fill="red" transform="translate(250,37)"/>
<path d="M0 0 C1.65 0 3.3 0 5 0 C5 8.25 5 16.5 5 25 C3.35 25 1.7 25 0 25 C0 16.75 0 8.5 0 0 Z " fill="red" transform="translate(188,71)"/>
<path d="M0 0 C1.65 0 3.3 0 5 0 C5 8.25 5 16.5 5 25 C3.35 25 1.7 25 0 25 C0 16.75 0 8.5 0 0 Z " fill="red" transform="translate(361,37)"/>
<path d="M0 0 C0.33 0.66 0.66 1.32 1 2 C-0.109375 4.27734375 -0.109375 4.27734375 -1.75 6.9375 C-2.28109375 7.81277344 -2.8121875 8.68804687 -3.359375 9.58984375 C-4.77381657 11.66772578 -6.15172324 13.3131691 -8 15 C-8.99 14.67 -9.98 14.34 -11 14 C-8.93687686 10.33584124 -6.64127824 7.29451872 -3.8125 4.1875 C-3.09707031 3.39730469 -2.38164063 2.60710938 -1.64453125 1.79296875 C-1.10183594 1.20128906 -0.55914062 0.60960937 0 0 Z " fill="red" transform="translate(75,39)"/>
<path d="M0 0 C3.63 0 7.26 0 11 0 C11 1.32 11 2.64 11 4 C7.37 4 3.74 4 0 4 C0 2.68 0 1.36 0 0 Z " fill="red" transform="translate(446,50)"/>
</svg>
