<svg id="visual" viewBox="0 0 900 40" width="900" height="40" xmlns="http://www.w3.org/2000/svg" xmlns:xlink="http://www.w3.org/1999/xlink" version="1.1"><path d="M0 23L6 24.3C12 25.7 24 28.3 36 27.2C48 26 60 21 72 20.2C84 19.3 96 22.7 108 24.8C120 27 132 28 144 26.8C156 25.7 168 22.3 180 20.2C192 18 204 17 216 18C228 19 240 22 252 23.7C264 25.3 276 25.7 288 25.8C300 26 312 26 324 23.7C336 21.3 348 16.7 360 14.5C372 12.3 384 12.7 396 14C408 15.3 420 17.7 432 19.8C444 22 456 24 468 24.3C480 24.7 492 23.3 504 21.8C516 20.3 528 18.7 540 19C552 19.3 564 21.7 576 22C588 22.3 600 20.7 612 21C624 21.3 636 23.7 648 22.5C660 21.3 672 16.7 684 15C696 13.3 708 14.7 720 16C732 17.3 744 18.7 756 18.2C768 17.7 780 15.3 792 13.5C804 11.7 816 10.3 828 11.7C840 13 852 17 864 17.5C876 18 888 15 894 13.5L900 12L900 0L894 0C888 0 876 0 864 0C852 0 840 0 828 0C816 0 804 0 792 0C780 0 768 0 756 0C744 0 732 0 720 0C708 0 696 0 684 0C672 0 660 0 648 0C636 0 624 0 612 0C600 0 588 0 576 0C564 0 552 0 540 0C528 0 516 0 504 0C492 0 480 0 468 0C456 0 444 0 432 0C420 0 408 0 396 0C384 0 372 0 360 0C348 0 336 0 324 0C312 0 300 0 288 0C276 0 264 0 252 0C240 0 228 0 216 0C204 0 192 0 180 0C168 0 156 0 144 0C132 0 120 0 108 0C96 0 84 0 72 0C60 0 48 0 36 0C24 0 12 0 6 0L0 0Z" fill="#0802A3" stroke-linecap="round" stroke-linejoin="miter"></path></svg>