<svg id="visual" viewBox="0 0 900 900" width="900" height="900" xmlns="http://www.w3.org/2000/svg" xmlns:xlink="http://www.w3.org/1999/xlink" version="1.1"><g transform="translate(469.5966995245275 513.1515891393539)"><path d="M180.7 -333.4C244.2 -276.3 312.6 -248.2 344.2 -197.4C375.7 -146.7 370.4 -73.3 387.7 10C405 93.3 445 186.7 416.2 242.2C387.5 297.8 290 315.6 209.2 329.6C128.3 343.6 64.2 353.8 -7 365.9C-78.2 378.1 -156.3 392.1 -216.4 366.1C-276.4 340.1 -318.3 274.1 -365.9 206.4C-413.5 138.7 -466.8 69.3 -465.5 0.8C-464.2 -67.8 -408.3 -135.7 -364.6 -210C-320.8 -284.3 -289.2 -365.2 -230.4 -425C-171.7 -484.8 -85.8 -523.7 -13.6 -500.1C58.6 -476.5 117.2 -390.5 180.7 -333.4" fill="#0802A3"></path></g></svg>