<svg id="visual" viewBox="0 0 900 900" width="900" height="900" xmlns="http://www.w3.org/2000/svg" xmlns:xlink="http://www.w3.org/1999/xlink" version="1.1"><g transform="translate(462.77703046644615 467.9999672044324)"><path d="M253.6 -437.3C319.7 -401.1 358.2 -315 380.5 -233.9C402.8 -152.7 408.9 -76.3 393.6 -8.8C378.3 58.7 341.6 117.3 310.2 182.9C278.9 248.4 252.9 320.8 202.1 350.8C151.3 380.8 75.7 368.4 -8.2 382.7C-92.2 397 -184.3 437.9 -251 417.1C-317.7 396.3 -358.9 313.6 -387 233.8C-415.1 154 -430 77 -427.3 1.6C-424.5 -73.8 -404.1 -147.7 -359.2 -198.4C-314.4 -249.2 -245.1 -276.8 -181.1 -314.2C-117.2 -351.6 -58.6 -398.8 17.6 -429.3C93.7 -459.7 187.5 -473.4 253.6 -437.3" fill="#0802A3"></path></g></svg>