<svg id="visual" viewBox="0 0 900 900" width="900" height="900" xmlns="http://www.w3.org/2000/svg" xmlns:xlink="http://www.w3.org/1999/xlink" version="1.1"><g transform="translate(448.9265559818015 482.8344565937785)"><path d="M244.9 -411.7C326 -377.2 406.6 -329.2 429.3 -258.4C452.1 -187.5 417 -93.8 386.6 -17.6C356.2 58.6 330.3 117.2 297.7 171C265.1 224.9 225.8 273.9 175.1 305.6C124.3 337.4 62.2 351.7 -9.6 368.3C-81.3 384.9 -162.7 403.7 -234.3 384.1C-305.8 364.4 -367.7 306.2 -394.5 235.8C-421.4 165.3 -413.2 82.7 -420.4 -4.2C-427.6 -91 -450.2 -182 -416.3 -240.2C-382.4 -298.3 -291.9 -323.7 -213.1 -359.5C-134.3 -395.3 -67.2 -441.7 7.3 -454.4C81.8 -467.1 163.7 -446.1 244.9 -411.7" fill="#0802A3"></path></g></svg>